:SAMPLES-PER-SECOND 30
:FULLY-SPECIFIED
:DEGREES
422
root  17.2366 28.9181 4.68828 1.60342 -58.7242 -0.509949
RightUpLeg  -38.7404 16.5273 -17.5778
RightLeg  50.1263 -1.4765 -1.59865
RightFoot  0.0895758 0.000590053 -0.374361
RightToes  -58.2927 -0.378499 -0.390898
Spine  5.98304 -2.37752 -1.12244
Spine1  10.2801 -4.16409 -2.84124
HEad  -28.7687 -28.5095 22.3474
LeftShoulder1  0 -2.42657e-020 -4.95415e-022
LeftArm  163.28 -78.1943 115.741
LeftForeArm  28.3243 -68.7506 -27.1275
LeftHand  -0.225258 -1.92897 12.9965
RightShoulder  0 2.42657e-020 1.07489e-018
RightArm  -102.753 53.8706 -20.643
RightForeArm  120.142 74.8434 40.4069
RightHand  -4.89894 5.93323 -78.7675
LeftUpLeg  -16.0789 -14.871 -2.99056
LeftLeg  61.6893 -1.46822 -2.35996
LeftFoot  -29.5241 0.346498 1.3149
LeftToes  -10.5222 1.28829e-006 1.15665e-007
423
root  15.0292 30.7525 4.87446 0.950317 -53.0112 -0.542206
RightUpLeg  -27.5499 12.391 -13.4839
RightLeg  41.9482 -2.84861 -2.27048
RightFoot  1.57655 0.0105918 -0.39208
RightToes  -57.815 -0.374035 -0.392197
Spine  4.05028 -3.54485 -1.74503
Spine1  7.07158 -6.55315 -4.01982
HEad  -27.2101 -29.6979 21.6582
LeftShoulder1  0 -2.42657e-020 -4.95415e-022
LeftArm  155.933 -76.3152 120.229
LeftForeArm  31.3127 -69.5931 -28.474
LeftHand  -0.340334 -3.20134 11.789
RightShoulder  0 2.42657e-020 1.07489e-018
RightArm  -104.396 52.0519 -22.7786
RightForeArm  131.382 77.1711 50.488
RightHand  -4.62909 5.50861 -79.7674
LeftUpLeg  -7.50735 -15.6284 -0.248171
LeftLeg  48.9738 -5.42282 -5.4608
LeftFoot  -20.2455 0.475243 2.6614
LeftToes  -19.1844 1.28829e-006 1.15665e-007
424
root  13.1003 33.5627 5.25906 0.778534 -47.3053 -0.586975
RightUpLeg  -13.1348 3.80818 -10.7624
RightLeg  23.4488 0.422509 0.148487
RightFoot  14.162 0.0624512 -0.125187
RightToes  -60.6782 -0.400957 -0.399927
Spine  2.39771 -4.72948 -2.18221
Spine1  4.25996 -9.11654 -4.87143
HEad  -25.6172 -31.7008 21.5541
LeftShoulder1  0 -2.42657e-020 -4.95415e-022
LeftArm  140.498 -76.3685 134.218
LeftForeArm  35.6109 -71.8133 -32.7006
LeftHand  -0.392372 -3.55465 12.2478
RightShoulder  0 2.42657e-020 1.07489e-018
RightArm  -100.459 49.0984 -20.6896
RightForeArm  151.107 79.442 70.736
RightHand  -4.53354 5.34162 -80.3317
LeftUpLeg  2.26162 -16.2956 2.37124
LeftLeg  29.6912 -11.8109 -5.70693
LeftFoot  -0.959779 0.00196413 0.23449
LeftToes  -29.4911 1.28829e-006 1.15665e-007
425
root  11.6229 36.6384 5.45021 2.57245 -44.7777 0.552124
RightUpLeg  -6.19174 -3.39187 -10.2722
RightLeg  7.35069 7.91149 0.507863
RightFoot  36.097 -1.35123 4.52254
RightToes  -52.5268 -0.325463 -0.374427
Spine  0.0785696 -4.99855 -3.2346
Spine1  0.0923665 -9.92441 -5.97695
HEad  -24.3126 -33.0162 21.0719
LeftShoulder1  0 -2.42657e-020 -4.95415e-022
LeftArm  127.295 -74.8248 147.385
LeftForeArm  38.5815 -72.6824 -34.7087
LeftHand  -0.42843 -3.75057 12.6822
RightShoulder  0 2.42657e-020 1.07489e-018
RightArm  -97.2139 45.9072 -17.0996
RightForeArm  176.006 79.9603 95.6609
RightHand  -4.47296 5.23746 -80.6868
LeftUpLeg  6.68821 -14.746 3.71682
LeftLeg  12.2927 -14.7334 -2.20686
LeftFoot  23.4389 1.25767 -6.05732
LeftToes  -11.4883 1.28829e-006 1.15665e-007
426
root  10.4956 39.3882 5.50466 5.22012 -43.298 1.54944
RightUpLeg  -7.15385 -8.57856 -9.87704
RightLeg  3.65604 12.9951 -0.00222181
RightFoot  46.7229 -3.95075 9.50815
RightToes  -43.6943 -0.248647 -0.335025
Spine  -2.08768 -5.43155 -4.25385
Spine1  -3.86535 -10.9336 -7.07195
HEad  -23.3515 -33.3526 21.1971
LeftShoulder1  0 -2.42657e-020 -4.95415e-022
LeftArm  123.344 -71.5122 151.403
LeftForeArm  35.124 -69.6407 -28.5589
LeftHand  -0.414236 -3.72489 12.3398
RightShoulder  0 2.42657e-020 1.07489e-018
RightArm  -95.2829 43.3707 -13.3744
RightForeArm  -174.879 79.528 107.342
RightHand  -4.86809 5.83691 -79.3357
LeftUpLeg  3.63411 -12.1253 3.49839
LeftLeg  7.79044 -12.2254 -0.872348
LeftFoot  36.3655 2.43016 -7.38972
LeftToes  1.78024 1.28829e-006 1.15665e-007
427
root  9.55912 41.6467 5.57642 5.87833 -42.6164 1.31805
RightUpLeg  -6.08506 -2.09118 -9.00627
RightLeg  4.83528 6.19971 0.126153
RightFoot  38.3017 -1.1457 3.6758
RightToes  -39.1823 -0.211984 -0.310457
Spine  -2.76243 -5.42437 -3.92872
Spine1  -5.2244 -11.0475 -6.61249
HEad  -24.925 -33.6437 20.4598
LeftShoulder1  0 -2.42657e-020 -4.95415e-022
LeftArm  124.49 -70.5032 150.542
LeftForeArm  29.1837 -66.0701 -23.5396
LeftHand  -0.371518 -3.33479 12.366
RightShoulder  0 2.42657e-020 1.07489e-018
RightArm  -93.5476 42.0011 -13.3688
RightForeArm  173.613 79.8735 98.7795
RightHand  -4.93192 5.96775 -78.8181
LeftUpLeg  2.42968 -6.44532 2.7125
LeftLeg  7.88574 -12.9412 -0.943981
LeftFoot  28.727 1.64027 -6.39917
LeftToes  1.94608 1.28829e-006 1.15665e-007
428
root  8.59343 43.545 5.66261 5.00046 -43.1933 -0.413422
RightUpLeg  -3.02872 0.04144 -6.82409
RightLeg  6.82028 0.582154 0.0332625
RightFoot  36.1567 0.0788524 0.135989
RightToes  -36.2834 -0.189495 -0.293179
Spine  -2.02953 -5.23079 -3.04634
Spine1  -3.92452 -10.7411 -5.61195
HEad  -27.2472 -32.4106 19.7569
LeftShoulder1  0 -2.42657e-020 -4.95415e-022
LeftArm  130.4 -69.7951 146.161
LeftForeArm  24.8126 -59.5738 -17.5375
LeftHand  -0.400437 -3.51693 12.6423
RightShoulder  0 2.42657e-020 1.07489e-018
RightArm  -92.7157 43.5068 -11.5216
RightForeArm  154.566 79.825 79.213
RightHand  -5.11194 6.2452 -78.2737
LeftUpLeg  4.11589 -1.67806 2.28321
LeftLeg  8.07223 -10.9856 -0.839154
LeftFoot  25.2504 1.08766 -4.85315
LeftToes  -0.0321719 1.28829e-006 1.15665e-007
429
root  7.65278 45.049 5.70446 4.73376 -43.0231 -2.19919
RightUpLeg  -0.232904 -2.51489 -5.04683
RightLeg  7.82705 0.353724 0.0270327
RightFoot  38.9861 0.151191 -0.0495615
RightToes  -37.0721 -0.195526 -0.297992
Spine  -1.50794 -5.28978 -2.06997
Spine1  -2.99086 -11.0202 -4.42067
HEad  -28.9162 -31.8913 19.5157
LeftShoulder1  0 -2.42657e-020 -4.95415e-022
LeftArm  128 -68.1717 146.818
LeftForeArm  23.5865 -52.1289 -13.1352
LeftHand  -0.403636 -4.05257 11.02
RightShoulder  0 2.42657e-020 1.07489e-018
RightArm  -91.0314 44.8428 -9.16382
RightForeArm  135.964 78.7123 61.9868
RightHand  -5.79096 7.39018 -75.8139
LeftUpLeg  4.13303 -1.34655 1.92587
LeftLeg  9.82654 -6.61215 -0.711373
LeftFoot  24.4026 0.632644 -2.92518
LeftToes  -0.96739 1.28829e-006 1.15665e-007
430
root  6.68201 46.1239 5.69191 4.97409 -43.1382 -3.71243
RightUpLeg  0.298726 -5.96884 -3.89337
RightLeg  11.0424 2.02135 0.262307
RightFoot  41.0886 -0.19541 0.898948
RightToes  -39.558 -0.214962 -0.312612
Spine  -1.20107 -5.40846 -1.35316
Spine1  -2.49634 -11.6607 -3.02365
HEad  -29.7345 -31.87 18.7841
LeftShoulder1  0 -2.42657e-020 -4.95415e-022
LeftArm  128.119 -66.4004 145.761
LeftForeArm  20.9508 -44.175 -9.87322
LeftHand  -0.336917 -4.96244 7.40365
RightShoulder  0 2.42657e-020 1.07489e-018
RightArm  -89.5031 46.5462 -7.76083
RightForeArm  115.385 75.9563 44.7699
RightHand  -6.02807 7.98177 -73.759
LeftUpLeg  3.24635 -1.85119 1.76045
LeftLeg  11.5318 -2.85812 -0.395219
LeftFoot  24.8769 0.335609 -1.52149
LeftToes  -0.991338 1.28829e-006 1.15665e-007
431
root  5.72118 46.7887 5.62858 5.19131 -44.2218 -5.36768
RightUpLeg  0.505589 -8.40637 -3.15752
RightLeg  14.3643 3.95761 0.746714
RightFoot  41.5656 -0.596077 1.94803
RightToes  -41.7353 -0.232491 -0.324713
Spine  -0.728355 -5.83768 -0.486935
Spine1  -1.87983 -13.1856 -1.10808
HEad  -30.483 -30.9595 18.4268
LeftShoulder1  0 -2.42657e-020 -4.95415e-022
LeftArm  129.784 -66.163 142.433
LeftForeArm  19.5687 -36.933 -7.61526
LeftHand  -0.0755529 -7.17207 0.836372
RightShoulder  0 2.42657e-020 1.07489e-018
RightArm  -88.9702 51.2986 -6.09597
RightForeArm  97.0307 68.9354 27.1556
RightHand  -6.60838 9.02796 -72.0243
LeftUpLeg  2.79673 -1.88927 2.03587
LeftLeg  12.4047 -1.51937 -0.234528
LeftFoot  25.1284 0.26474 -1.18783
LeftToes  -0.775443 1.28829e-006 1.15665e-007
432
root  4.84229 47.0117 5.58037 4.88086 -45.7964 -6.32724
RightUpLeg  0.654557 -8.87579 -3.37552
RightLeg  17.1777 5.81625 1.3935
RightFoot  41.8932 -0.976078 2.92701
RightToes  -42.411 -0.238024 -0.328333
Spine  -0.246072 -6.40189 0.188686
Spine1  -1.42273 -15.1545 0.56014
HEad  -29.9162 -30.1448 17.7499
LeftShoulder1  0 -2.42657e-020 -4.95415e-022
LeftArm  129.178 -67.1143 139.275
LeftForeArm  25.225 -29.3139 -5.6755
LeftHand  0.338387 -8.06012 -5.17454
RightShoulder  0 2.42657e-020 1.07489e-018
RightArm  -92.0001 58.3289 -7.7992
RightForeArm  85.5411 51.7145 12.7885
RightHand  -7.23432 10.1451 -70.5791
LeftUpLeg  2.00806 -2.3931 1.76001
LeftLeg  13.5087 -1.1179 -0.195192
LeftFoot  25.4318 0.293415 -1.30026
LeftToes  1.56953 1.28829e-006 1.15665e-007
433
root  3.9217 46.887 5.55562 4.55176 -47.4329 -7.01651
RightUpLeg  1.77688 -8.35306 -3.86096
RightLeg  17.1468 7.13584 1.70421
RightFoot  42.9634 -1.45464 4.07268
RightToes  -42.1993 -0.239243 -0.330291
Spine  0.923279 -5.30098 0.950596
Spine1  -0.0653036 -12.4671 0.58118
HEad  -30.4098 -29.3635 17.6402
LeftShoulder1  0 -2.42657e-020 -4.95415e-022
LeftArm  125.854 -66.5222 138.525
LeftForeArm  39.9328 -23.4135 -4.36123
LeftHand  0.65641 -8.57496 -9.11594
RightShoulder  0 2.42657e-020 1.07489e-018
RightArm  -108.666 62.9851 -19.0006
RightForeArm  87.4234 29.0003 5.47458
RightHand  -8.0376 11.8772 -67.7297
LeftUpLeg  2.67931 -1.80686 1.71536
LeftLeg  10.8305 -1.26007 -0.159279
LeftFoot  28.6345 0.36626 -1.43503
LeftToes  1.95167 1.28829e-006 1.15665e-007
434
root  3.04637 46.2344 5.47022 4.94089 -48.941 -7.91531
RightUpLeg  2.09251 -7.69093 -4.11262
RightLeg  16.1766 7.93332 1.75296
RightFoot  43.2962 -1.7946 4.89704
RightToes  -42.5487 -0.239157 -0.331146
Spine  2.03153 -3.93751 2.01556
Spine1  1.29621 -8.86432 0.27067
HEad  -31.2261 -28.9897 18.0608
LeftShoulder1  0 -2.42657e-020 -4.95415e-022
LeftArm  117.927 -64.7534 138.82
LeftForeArm  48.1016 -19.3679 -3.52541
LeftHand  0.517099 -5.3879 -11.3408
RightShoulder  0 2.42657e-020 1.07489e-018
RightArm  -128.241 63.017 -32.7005
RightForeArm  85.0252 11.7103 1.98116
RightHand  -8.61691 16.0364 -55.9274
LeftUpLeg  1.78448 0.875195 2.3042
LeftLeg  8.49464 -2.28209 -0.193076
LeftFoot  32.8387 0.589394 -1.99992
LeftToes  1.41381 1.28829e-006 1.15665e-007
435
root  2.21439 44.981 5.33095 6.02432 -50.7433 -9.41968
RightUpLeg  1.44088 -7.12988 -3.99758
RightLeg  15.1758 8.26115 1.67502
RightFoot  41.6658 -1.69108 4.81967
RightToes  -42.5865 -0.239468 -0.329262
Spine  2.45781 -3.34704 2.84601
Spine1  1.88102 -7.71498 -0.128874
HEad  -31.9495 -28.7768 19.6667
LeftShoulder1  0 -2.42657e-020 -4.95415e-022
LeftArm  105.753 -63.1003 139.601
LeftForeArm  46.2263 -16.761 -3.02001
LeftHand  0.154944 -1.75208 -10.5183
RightShoulder  0 2.42657e-020 1.07489e-018
RightArm  -121.432 62.5825 -36.2447
RightForeArm  69.8022 3.30385 0.522547
RightHand  -6.36427 17.9535 -38.421
LeftUpLeg  -1.17511 4.91577 3.23496
LeftLeg  8.49207 -3.97618 -0.335313
LeftFoot  35.2443 1.01218 -3.1858
LeftToes  -3.59658 1.28829e-006 1.15665e-007
436
root  1.34155 43.283 5.15665 7.33789 -52.6449 -11.0291
RightUpLeg  1.28507 -5.78567 -3.49049
RightLeg  11.6875 7.51466 1.05566
RightFoot  40.1317 -1.31669 3.98114
RightToes  -41.1182 -0.227477 -0.321352
Spine  2.38561 -3.13826 2.98749
Spine1  1.8242 -7.61549 -0.710172
HEad  -31.3212 -28.2181 21.1894
LeftShoulder1  0 -2.42657e-020 -4.95415e-022
LeftArm  105.954 -63.9089 138.16
LeftForeArm  42.5919 -16.6142 -2.99697
LeftHand  0.00895195 -0.113926 -9.96173
RightShoulder  0 2.42657e-020 1.07489e-018
RightArm  -104.821 64.5143 -33.2446
RightForeArm  65.9291 1.24791 0.171698
RightHand  -5.3825 22.8383 -25.8383
LeftUpLeg  -3.75462 9.76795 4.15893
LeftLeg  7.63744 -8.04126 -0.555079
LeftFoot  32.7743 1.58983 -5.40259
LeftToes  -8.72474 1.28829e-006 1.15665e-007
